<svg xmlns="http://www.w3.org/2000/svg" xmlns:xlink="http://www.w3.org/1999/xlink" version="1.1" width="1000" height="1000" viewBox="0 0 1000 1000" xml:space="preserve">
<desc>Created with Fabric.js 3.5.0</desc>
<defs>
</defs>
<rect x="0" y="0" width="100%" height="100%" fill="#ffffff"/>
<g transform="matrix(1 0 0 1 745.5655 12275.779)" id="567587">
<g style="">
		<g transform="matrix(11.0898 0 0 11.0898 -222.3096 -11788.4081)" id="494472">
<rect style="stroke: none; stroke-width: 0; stroke-dasharray: none; stroke-linecap: butt; stroke-dashoffset: 0; stroke-linejoin: miter; stroke-miterlimit: 4; is-custom-font: none; font-file-url: none; fill: rgb(30,30,30); fill-rule: nonzero; opacity: 1;" x="-40" y="-40" rx="0" ry="0" width="80" height="80"/>
</g>
		<g transform="matrix(11.0898 0 0 11.0898 -144.7142 0)" id="1.2" clip-path="url(#CLIPPATH_1)">
<clipPath id="CLIPPATH_1">
	<rect transform="matrix(1 0 0 1 0 0)" id="clip0_10_2907" x="-720" y="-2104" rx="0" ry="0" width="1440" height="4208"/>
</clipPath>
<rect style="stroke: none; stroke-width: 0; stroke-dasharray: none; stroke-linecap: butt; stroke-dashoffset: 0; stroke-linejoin: miter; stroke-miterlimit: 4; is-custom-font: none; font-file-url: none; fill: rgb(255,255,255); fill-rule: nonzero; opacity: 1;" x="-720" y="-2104" rx="0" ry="0" width="1440" height="4208"/>
</g>
		<g transform="matrix(11.0898 0 0 11.0898 144.7142 -16889.5822)" id="Rectangle 2715" clip-path="url(#CLIPPATH_2)">
<clipPath id="CLIPPATH_2">
	<rect transform="matrix(1 0 0 1 1 1537)" id="clip0_10_2907" x="-720" y="-2104" rx="0" ry="0" width="1440" height="4208"/>
</clipPath>
<rect style="stroke: none; stroke-width: 0; stroke-dasharray: none; stroke-linecap: butt; stroke-dashoffset: 0; stroke-linejoin: miter; stroke-miterlimit: 4; is-custom-font: none; font-file-url: none; fill: rgb(248,248,253); fill-rule: nonzero; opacity: 1;" x="-720" y="-567" rx="0" ry="0" width="1440" height="1134"/>
</g>
		<g transform="matrix(11.0898 0 0 11.0898 -216.7637 -11782.8622)" id="Ellipse 2" clip-path="url(#CLIPPATH_3)">
<clipPath id="CLIPPATH_3">
	<rect transform="matrix(1 0 0 1 7 1063)" id="clip0_10_2907" x="-720" y="-2104" rx="0" ry="0" width="1440" height="4208"/>
</clipPath>
<circle style="stroke: rgb(1,8,134); stroke-opacity: 0.5; stroke-width: 1; stroke-dasharray: none; stroke-linecap: butt; stroke-dashoffset: 0; stroke-linejoin: miter; stroke-miterlimit: 4; is-custom-font: none; font-file-url: none; fill: none; fill-rule: nonzero; opacity: 1;" cx="0" cy="0" r="19.5"/>
</g>
		<g transform="matrix(11.0898 0 0 11.0898 -222.2985 -11788.4053)" id="Vector" clip-path="url(#CLIPPATH_4)">
<clipPath id="CLIPPATH_4">
	<rect transform="matrix(1 0 0 1 6.9991 1062.9999)" id="clip0_10_2907" x="-720" y="-2104" rx="0" ry="0" width="1440" height="4208"/>
</clipPath>
<path style="stroke: none; stroke-width: 0; stroke-dasharray: none; stroke-linecap: butt; stroke-dashoffset: 0; stroke-linejoin: miter; stroke-miterlimit: 4; is-custom-font: none; font-file-url: none; fill: rgb(1,8,134); fill-rule: nonzero; opacity: 1;" transform=" translate(-40.0008, -40.0001)" d="M 45.71 39.29 C 45.617 39.1963 45.5064 39.1219 45.3846 39.0711 C 45.2627 39.0203 45.132 38.9942 45 38.9942 C 44.868 38.9942 44.7373 39.0203 44.6154 39.0711 C 44.4936 39.1219 44.383 39.1963 44.29 39.29 L 41 42.59 V 35 C 41 34.7348 40.8946 34.4804 40.7071 34.2929 C 40.5196 34.1054 40.2652 34 40 34 C 39.7348 34 39.4804 34.1054 39.2929 34.2929 C 39.1054 34.4804 39 34.7348 39 35 V 42.59 L 35.71 39.29 C 35.5217 39.1017 35.2663 38.9959 35 38.9959 C 34.7337 38.9959 34.4783 39.1017 34.29 39.29 C 34.1017 39.4783 33.9959 39.7337 33.9959 40 C 33.9959 40.2663 34.1017 40.5217 34.29 40.71 L 39.29 45.71 C 39.3851 45.801 39.4972 45.8724 39.62 45.92 C 39.7397 45.9729 39.8691 46.0002 40 46.0002 C 40.1309 46.0002 40.2603 45.9729 40.38 45.92 C 40.5028 45.8724 40.6149 45.801 40.71 45.71 L 45.71 40.71 C 45.8037 40.617 45.8781 40.5064 45.9289 40.3846 C 45.9797 40.2627 46.0058 40.132 46.0058 40 C 46.0058 39.868 45.9797 39.7373 45.9289 39.6154 C 45.8781 39.4936 45.8037 39.383 45.71 39.29 Z" stroke-linecap="round"/>
</g>
		<g transform="matrix(11.0898 0 0 11.0898 -516.6131 -11648.8607)" id="S" clip-path="url(#CLIPPATH_5)">
<clipPath id="CLIPPATH_5">
	<rect transform="matrix(1 0 0 1 33.5383 1050.4168)" id="clip0_10_2907" x="-720" y="-2104" rx="0" ry="0" width="1440" height="4208"/>
</clipPath>
<path style="stroke: none; stroke-width: 0; stroke-dasharray: none; stroke-linecap: butt; stroke-dashoffset: 0; stroke-linejoin: miter; stroke-miterlimit: 4; is-custom-font: none; font-file-url: none; fill: rgb(37,50,75); fill-rule: nonzero; opacity: 1;" transform=" translate(-13.4617, -52.5832)" d="M 11.0597 51.9482 C 11.0615 52.2406 11.0877 52.5264 11.1381 52.8057 C 11.1856 53.0797 11.2657 53.3181 11.3784 53.5209 C 11.5178 53.7717 11.6783 53.941 11.8597 54.0288 C 12.0412 54.1165 12.2334 54.104 12.4362 53.9913 C 12.5749 53.9142 12.6707 53.7911 12.7234 53.6221 C 12.7679 53.4507 12.7854 53.2559 12.7758 53.0376 C 12.7633 52.8141 12.7399 52.5896 12.7054 52.3643 C 12.6746 52.1579 12.6585 51.9468 12.6573 51.7309 C 12.6478 51.5127 12.6727 51.2998 12.7319 51.0922 C 12.7859 50.8876 12.8893 50.6904 13.0423 50.5006 C 13.1899 50.3137 13.4052 50.1417 13.688 49.9845 C 13.9869 49.8184 14.3074 49.7416 14.6496 49.754 C 14.9918 49.7664 15.326 49.8775 15.6522 50.0874 C 15.9731 50.3002 16.2551 50.6255 16.4983 51.0631 C 16.6229 51.2872 16.7291 51.5286 16.8169 51.7872 C 16.8964 52.0433 16.9531 52.3087 16.9869 52.5833 C 17.0155 52.8608 17.0155 53.1437 16.9871 53.4319 L 15.7977 53.4223 C 15.822 53.2272 15.8297 53.0274 15.8208 52.8228 C 15.8035 52.6158 15.7703 52.4177 15.721 52.2286 C 15.6718 52.0394 15.6086 51.8754 15.5315 51.7367 C 15.4544 51.5979 15.3586 51.4695 15.2441 51.3515 C 15.1213 51.2312 14.9867 51.1523 14.8402 51.115 C 14.6907 51.0723 14.5306 51.0984 14.3598 51.1933 C 14.2424 51.2586 14.1579 51.3579 14.1064 51.4914 C 14.0518 51.6195 14.0216 51.7725 14.0157 51.9504 C 14.0068 52.123 14.0161 52.303 14.0434 52.4904 C 14.0748 52.7104 14.0986 52.9417 14.1146 53.1842 C 14.1307 53.4268 14.1221 53.669 14.089 53.911 C 14.0475 54.1506 13.9604 54.3771 13.8275 54.5906 C 13.6864 54.8018 13.4745 54.986 13.1916 55.1432 C 12.85 55.333 12.5123 55.4229 12.1784 55.4129 C 11.8416 55.3975 11.524 55.2911 11.2257 55.0937 C 10.922 54.8992 10.6613 54.625 10.4436 54.271 C 10.1796 53.796 10.0221 53.3806 9.97104 53.0248 C 9.91701 52.6636 9.90213 52.3226 9.92639 52.0018 L 11.0597 51.9482 Z" stroke-linecap="round"/>
</g>
		<g transform="matrix(11.0898 0 0 11.0898 -536.36 -11740.1446)" id="c" clip-path="url(#CLIPPATH_6)">
<clipPath id="CLIPPATH_6">
	<rect transform="matrix(1 0 0 1 35.3189 1058.6481)" id="clip0_10_2907" x="-720" y="-2104" rx="0" ry="0" width="1440" height="4208"/>
</clipPath>
<path style="stroke: none; stroke-width: 0; stroke-dasharray: none; stroke-linecap: butt; stroke-dashoffset: 0; stroke-linejoin: miter; stroke-miterlimit: 4; is-custom-font: none; font-file-url: none; fill: rgb(37,50,75); fill-rule: nonzero; opacity: 1;" transform=" translate(-11.6811, -44.3519)" d="M 12.9518 42.3298 C 13.1276 42.4717 13.2868 42.6644 13.4291 42.9077 C 13.5701 43.1451 13.6688 43.3889 13.7251 43.6391 C 13.8256 44.0858 13.833 44.4941 13.7472 44.8639 C 13.6541 45.229 13.4764 45.5381 13.2142 45.7911 C 12.9446 46.0395 12.5924 46.2126 12.1576 46.3104 C 11.7227 46.4083 11.3313 46.3931 10.9833 46.2648 C 10.6293 46.1379 10.3363 45.9347 10.1045 45.6552 C 9.87128 45.3697 9.71515 45.0512 9.63608 44.6998 C 9.55701 44.3483 9.53632 44.0338 9.574 43.7562 C 9.61035 43.4727 9.68519 43.2212 9.79852 43.0017 L 10.7394 43.4283 C 10.6926 43.5265 10.6532 43.6574 10.6212 43.821 C 10.5819 43.9801 10.5843 44.1579 10.6286 44.3545 C 10.6674 44.5272 10.7476 44.675 10.8691 44.7979 C 10.9907 44.9208 11.1382 45.0065 11.3119 45.055 C 11.4855 45.1036 11.6736 45.1051 11.8761 45.0595 C 12.0668 45.0166 12.2324 44.9324 12.3732 44.8069 C 12.5139 44.6813 12.6145 44.5304 12.675 44.3541 C 12.7281 44.1731 12.7306 43.9754 12.6823 43.761 C 12.6515 43.624 12.6055 43.5029 12.5443 43.3978 C 12.4758 43.288 12.3964 43.1995 12.3062 43.1322 L 12.9518 42.3298 Z" stroke-linecap="round"/>
</g>
		<g transform="matrix(11.0898 0 0 11.0898 -544.0063 -11819.2554)" id="r" clip-path="url(#CLIPPATH_7)">
<clipPath id="CLIPPATH_7">
	<rect transform="matrix(1 0 0 1 36.0084 1065.7818)" id="clip0_10_2907" x="-720" y="-2104" rx="0" ry="0" width="1440" height="4208"/>
</clipPath>
<path style="stroke: none; stroke-width: 0; stroke-dasharray: none; stroke-linecap: butt; stroke-dashoffset: 0; stroke-linejoin: miter; stroke-miterlimit: 4; is-custom-font: none; font-file-url: none; fill: rgb(37,50,75); fill-rule: nonzero; opacity: 1;" transform=" translate(-10.9916, -37.2182)" d="M 9.06116 37.3831 L 10.1638 37.3037 L 9.99803 37.3253 C 9.76425 37.2007 9.56862 37.0348 9.41114 36.8275 C 9.24756 36.62 9.12353 36.4169 9.03905 36.2184 C 8.95479 36.0137 8.91454 35.8595 8.91828 35.7558 L 10.1973 35.8661 C 10.1499 36.1638 10.1895 36.4218 10.316 36.6402 C 10.4426 36.8586 10.6136 37.0298 10.829 37.1536 C 11.0445 37.2775 11.2682 37.3436 11.5001 37.352 L 13.0652 37.4085 L 13.0192 38.6807 L 9.01953 38.5363 L 9.06116 37.3831 Z" stroke-linecap="round"/>
</g>
		<g transform="matrix(11.0898 0 0 11.0898 -529.2111 -11901.8353)" id="o" clip-path="url(#CLIPPATH_8)">
<clipPath id="CLIPPATH_8">
	<rect transform="matrix(1 0 0 1 34.6743 1073.2282)" id="clip0_10_2907" x="-720" y="-2104" rx="0" ry="0" width="1440" height="4208"/>
</clipPath>
<path style="stroke: none; stroke-width: 0; stroke-dasharray: none; stroke-linecap: butt; stroke-dashoffset: 0; stroke-linejoin: miter; stroke-miterlimit: 4; is-custom-font: none; font-file-url: none; fill: rgb(37,50,75); fill-rule: nonzero; opacity: 1;" transform=" translate(-12.3257, -29.7718)" d="M 11.6105 31.9237 C 11.2213 31.7979 10.9018 31.5952 10.652 31.3156 C 10.4042 31.0302 10.2466 30.6937 10.1793 30.3063 C 10.1062 29.9169 10.1391 29.5072 10.278 29.0773 C 10.4188 28.6416 10.6309 28.293 10.9143 28.0317 C 11.1918 27.7684 11.5118 27.6023 11.8741 27.5333 C 12.2384 27.4585 12.6152 27.484 13.0044 27.6098 C 13.3937 27.7356 13.717 27.9363 13.9745 28.212 C 14.2279 28.4799 14.3931 28.8028 14.47 29.1805 C 14.5468 29.5583 14.513 29.9708 14.3684 30.4182 C 14.2333 30.8365 14.0309 31.185 13.7612 31.4636 C 13.4934 31.7364 13.1755 31.916 12.8075 32.0024 C 12.4395 32.0889 12.0405 32.0626 11.6105 31.9237 Z M 12.0163 30.6977 C 12.2138 30.7615 12.4071 30.779 12.5961 30.7503 C 12.7792 30.7196 12.9398 30.6496 13.0778 30.5402 C 13.2158 30.4308 13.313 30.2889 13.3693 30.1146 C 13.4313 29.9229 13.4383 29.7423 13.3904 29.5728 C 13.3425 29.4033 13.2523 29.2555 13.1198 29.1293 C 12.9815 29.0012 12.8136 28.9052 12.6161 28.8414 C 12.4127 28.7757 12.2204 28.7553 12.0392 28.7801 C 11.8579 28.805 11.6982 28.8721 11.5602 28.9815 C 11.4222 29.0909 11.3222 29.2415 11.2603 29.4332 C 11.204 29.6075 11.1998 29.7794 11.2477 29.9488 C 11.2956 30.1183 11.3848 30.2691 11.5154 30.4011 C 11.646 30.5331 11.813 30.632 12.0163 30.6977 Z" stroke-linecap="round"/>
</g>
		<g transform="matrix(11.0898 0 0 11.0898 -510.5014 -11983.5189)" id="l" clip-path="url(#CLIPPATH_9)">
<clipPath id="CLIPPATH_9">
	<rect transform="matrix(1 0 0 1 32.9872 1080.5938)" id="clip0_10_2907" x="-720" y="-2104" rx="0" ry="0" width="1440" height="4208"/>
</clipPath>
<path style="stroke: none; stroke-width: 0; stroke-dasharray: none; stroke-linecap: butt; stroke-dashoffset: 0; stroke-linejoin: miter; stroke-miterlimit: 4; is-custom-font: none; font-file-url: none; fill: rgb(37,50,75); fill-rule: nonzero; opacity: 1;" transform=" translate(-14.0129, -22.4062)" d="M 10.6249 20.9966 L 11.3167 19.917 L 17.4008 23.8158 L 16.709 24.8954 L 10.6249 20.9966 Z" stroke-linecap="round"/>
</g>
		<g transform="matrix(11.0898 0 0 11.0898 -467.8232 -12037.7066)" id="l_2" clip-path="url(#CLIPPATH_10)">
<clipPath id="CLIPPATH_10">
	<rect transform="matrix(1 0 0 1 29.1387 1085.48)" id="clip0_10_2907" x="-720" y="-2104" rx="0" ry="0" width="1440" height="4208"/>
</clipPath>
<path style="stroke: none; stroke-width: 0; stroke-dasharray: none; stroke-linecap: butt; stroke-dashoffset: 0; stroke-linejoin: miter; stroke-miterlimit: 4; is-custom-font: none; font-file-url: none; fill: rgb(37,50,75); fill-rule: nonzero; opacity: 1;" transform=" translate(-17.8612, -17.5199)" d="M 14.841 15.4359 L 15.7424 14.524 L 20.8815 19.604 L 19.9801 20.5159 L 14.841 15.4359 Z" stroke-linecap="round"/>
</g>
		<g transform="matrix(11.0898 0 0 11.0898 -346.4719 -12108.0674)" id="t" clip-path="url(#CLIPPATH_11)">
<clipPath id="CLIPPATH_11">
	<rect transform="matrix(1 0 0 1 18.1962 1091.8247)" id="clip0_10_2907" x="-720" y="-2104" rx="0" ry="0" width="1440" height="4208"/>
</clipPath>
<path style="stroke: none; stroke-width: 0; stroke-dasharray: none; stroke-linecap: butt; stroke-dashoffset: 0; stroke-linejoin: miter; stroke-miterlimit: 4; is-custom-font: none; font-file-url: none; fill: rgb(37,50,75); fill-rule: nonzero; opacity: 1;" transform=" translate(-28.8038, -11.1753)" d="M 27.2072 8.69371 L 28.4104 8.25079 L 29.0115 9.88381 L 29.9226 9.54846 L 30.2674 10.4853 L 29.3564 10.8206 L 30.4004 13.6569 L 29.1971 14.0999 L 28.1531 11.2636 L 27.5686 11.4787 L 27.2238 10.5419 L 27.8083 10.3267 L 27.2072 8.69371 Z" stroke-linecap="round"/>
</g>
		<g transform="matrix(11.0898 0 0 11.0898 -257.5304 -12118.8893)" id="o_2" clip-path="url(#CLIPPATH_12)">
<clipPath id="CLIPPATH_12">
	<rect transform="matrix(1 0 0 1 10.1761 1092.8005)" id="clip0_10_2907" x="-720" y="-2104" rx="0" ry="0" width="1440" height="4208"/>
</clipPath>
<path style="stroke: none; stroke-width: 0; stroke-dasharray: none; stroke-linecap: butt; stroke-dashoffset: 0; stroke-linejoin: miter; stroke-miterlimit: 4; is-custom-font: none; font-file-url: none; fill: rgb(37,50,75); fill-rule: nonzero; opacity: 1;" transform=" translate(-36.8239, -10.1995)" d="M 34.5636 10.3647 C 34.5324 9.95677 34.5988 9.58428 34.7629 9.2472 C 34.9331 8.90965 35.1847 8.6363 35.5177 8.42714 C 35.8503 8.2119 36.2419 8.08707 36.6924 8.05265 C 37.149 8.01776 37.5519 8.08189 37.9012 8.24503 C 38.25 8.40209 38.525 8.6352 38.7262 8.94438 C 38.9335 9.25308 39.0527 9.61139 39.0839 10.0193 C 39.1151 10.4272 39.0519 10.8025 38.8944 11.1452 C 38.7425 11.4813 38.5063 11.7566 38.1859 11.9709 C 37.8655 12.1852 37.4709 12.3103 37.0021 12.3461 C 36.5638 12.3796 36.1646 12.3243 35.8045 12.1804 C 35.4506 12.036 35.1639 11.8099 34.9444 11.5021 C 34.7249 11.1943 34.598 10.8152 34.5636 10.3647 Z M 35.8519 10.2754 C 35.8677 10.4824 35.9247 10.6679 36.023 10.8318 C 36.1208 10.9897 36.2464 11.1117 36.4 11.198 C 36.5535 11.2842 36.7216 11.3204 36.9043 11.3064 C 37.1052 11.2911 37.275 11.2291 37.4136 11.1205 C 37.5523 11.012 37.6549 10.8725 37.7215 10.7021 C 37.7876 10.5255 37.8128 10.3338 37.797 10.1268 C 37.7807 9.91372 37.7267 9.72801 37.635 9.56968 C 37.5433 9.41136 37.4207 9.28907 37.2671 9.20283 C 37.1136 9.11658 36.9363 9.08114 36.7354 9.09649 C 36.5528 9.11044 36.3921 9.1717 36.2535 9.28028 C 36.1148 9.38885 36.0091 9.52858 35.9364 9.69947 C 35.8638 9.87035 35.8356 10.0623 35.8519 10.2754 Z" stroke-linecap="round"/>
</g>
		<g transform="matrix(11.0898 0 0 11.0898 -101.844 -12091.206)" id="e" clip-path="url(#CLIPPATH_13)">
<clipPath id="CLIPPATH_13">
	<rect transform="matrix(1 0 0 1 -3.8625 1090.3042)" id="clip0_10_2907" x="-720" y="-2104" rx="0" ry="0" width="1440" height="4208"/>
</clipPath>
<path style="stroke: none; stroke-width: 0; stroke-dasharray: none; stroke-linecap: butt; stroke-dashoffset: 0; stroke-linejoin: miter; stroke-miterlimit: 4; is-custom-font: none; font-file-url: none; fill: rgb(37,50,75); fill-rule: nonzero; opacity: 1;" transform=" translate(-50.8625, -12.6958)" d="M 50.0379 14.6474 C 49.5937 14.4442 49.2542 14.1882 49.0195 13.8795 C 48.7903 13.5732 48.6625 13.2361 48.636 12.8682 C 48.6096 12.5003 48.684 12.1247 48.8592 11.7416 C 49.0268 11.3751 49.2723 11.0879 49.5957 10.88 C 49.9191 10.672 50.2784 10.5544 50.6736 10.527 C 51.0714 10.4941 51.4646 10.5665 51.8533 10.7443 C 52.3752 10.983 52.7329 11.3312 52.9264 11.789 C 53.128 12.2437 53.148 12.7799 52.9863 13.3975 L 49.7431 13.0019 L 49.7744 12.2508 L 52.1395 12.4966 L 51.8484 12.4944 C 51.87 12.3297 51.8467 12.168 51.7783 12.0091 C 51.7181 11.8473 51.5741 11.7143 51.3464 11.6102 C 51.1743 11.5315 51.0026 11.5033 50.8312 11.5256 C 50.668 11.545 50.516 11.6131 50.3752 11.73 C 50.2425 11.8439 50.1305 12.0008 50.0391 12.2006 C 49.935 12.4283 49.889 12.6389 49.9012 12.8325 C 49.9159 13.0205 49.9777 13.1864 50.0865 13.3301 C 50.1953 13.4739 50.3385 13.5864 50.5162 13.6677 C 50.6439 13.7261 50.7762 13.7597 50.9132 13.7687 C 51.0556 13.7801 51.2017 13.7764 51.3513 13.7576 L 51.4715 14.8599 C 51.2264 14.8821 50.9748 14.8744 50.7166 14.8369 C 50.4641 14.802 50.2378 14.7388 50.0379 14.6474 Z" stroke-linecap="round"/>
</g>
		<g transform="matrix(11.0898 0 0 11.0898 -29.2839 -12044.1538)" id="x" clip-path="url(#CLIPPATH_14)">
<clipPath id="CLIPPATH_14">
	<rect transform="matrix(1 0 0 1 -10.4054 1086.0614)" id="clip0_10_2907" x="-720" y="-2104" rx="0" ry="0" width="1440" height="4208"/>
</clipPath>
<path style="stroke: none; stroke-width: 0; stroke-dasharray: none; stroke-linecap: butt; stroke-dashoffset: 0; stroke-linejoin: miter; stroke-miterlimit: 4; is-custom-font: none; font-file-url: none; fill: rgb(37,50,75); fill-rule: nonzero; opacity: 1;" transform=" translate(-57.4055, -16.9386)" d="M 57.9969 16.4308 L 59.4055 15.9678 L 60.3668 16.8024 L 57.7294 17.4235 L 57.9969 16.4308 Z M 57.909 19.9688 L 56.7402 18.9541 L 57.0333 13.9084 L 58.2228 14.9411 L 57.909 19.9688 Z M 56.9238 17.4155 L 55.4054 17.7953 L 54.4441 16.9608 L 57.0455 16.3811 L 56.9238 17.4155 Z" stroke-linecap="round"/>
</g>
		<g transform="matrix(11.0898 0 0 11.0898 21.4667 -11975.4312)" id="p" clip-path="url(#CLIPPATH_15)">
<clipPath id="CLIPPATH_15">
	<rect transform="matrix(1 0 0 1 -14.9818 1079.8645)" id="clip0_10_2907" x="-720" y="-2104" rx="0" ry="0" width="1440" height="4208"/>
</clipPath>
<path style="stroke: none; stroke-width: 0; stroke-dasharray: none; stroke-linecap: butt; stroke-dashoffset: 0; stroke-linejoin: miter; stroke-miterlimit: 4; is-custom-font: none; font-file-url: none; fill: rgb(37,50,75); fill-rule: nonzero; opacity: 1;" transform=" translate(-61.9818, -23.1355)" d="M 61.3578 24.7432 C 61.2332 24.5403 61.1466 24.3177 61.098 24.0752 C 61.0578 23.8348 61.068 23.6064 61.1285 23.3901 L 61.4677 23.2247 L 59.1655 24.6388 L 58.4992 23.5541 L 63.6264 20.4047 L 64.2016 21.3412 L 63.6342 21.9047 L 63.8155 21.6751 C 64.0751 21.7593 64.3214 21.8803 64.5545 22.0381 C 64.7875 22.1959 64.9919 22.4178 65.1677 22.704 C 65.3626 23.0213 65.4614 23.3512 65.4639 23.6936 C 65.4716 24.0328 65.3781 24.359 65.1835 24.672 C 64.9972 24.987 64.709 25.2644 64.3188 25.5041 C 63.9338 25.7406 63.5565 25.8613 63.1869 25.8661 C 62.8173 25.871 62.476 25.7762 62.1629 25.5815 C 61.8499 25.3868 61.5815 25.1074 61.3578 24.7432 Z M 62.082 23.9974 C 62.1907 24.1743 62.3288 24.3116 62.4963 24.4094 C 62.667 24.5123 62.8498 24.5649 63.0446 24.567 C 63.2478 24.5712 63.4404 24.5174 63.6225 24.4055 C 63.815 24.2873 63.9559 24.1434 64.0453 23.9739 C 64.143 23.8063 64.1877 23.6284 64.1795 23.44 C 64.1797 23.2536 64.1286 23.0771 64.0263 22.9106 C 63.9369 22.765 63.8361 22.6477 63.7242 22.5588 C 63.6207 22.4719 63.5027 22.4082 63.3704 22.3677 C 63.2464 22.3292 63.108 22.3139 62.9552 22.3218 L 62.1202 22.8347 C 62.0365 22.9434 61.977 23.0624 61.9417 23.1915 C 61.9064 23.3207 61.8989 23.4543 61.9192 23.5923 C 61.9479 23.7323 62.0021 23.8674 62.082 23.9974 Z" stroke-linecap="round"/>
</g>
		<g transform="matrix(11.0898 0 0 11.0898 83.8973 -11902.5524)" id="l_3" clip-path="url(#CLIPPATH_16)">
<clipPath id="CLIPPATH_16">
	<rect transform="matrix(1 0 0 1 -20.6113 1073.2929)" id="clip0_10_2907" x="-720" y="-2104" rx="0" ry="0" width="1440" height="4208"/>
</clipPath>
<path style="stroke: none; stroke-width: 0; stroke-dasharray: none; stroke-linecap: butt; stroke-dashoffset: 0; stroke-linejoin: miter; stroke-miterlimit: 4; is-custom-font: none; font-file-url: none; fill: rgb(37,50,75); fill-rule: nonzero; opacity: 1;" transform=" translate(-67.6113, -29.7071)" d="M 70.9001 28.0796 L 71.2593 29.3105 L 64.3225 31.3347 L 63.9633 30.1039 L 70.9001 28.0796 Z" stroke-linecap="round"/>
</g>
		<g transform="matrix(11.0898 0 0 11.0898 80.2149 -11818.1674)" id="o_3" clip-path="url(#CLIPPATH_17)">
<clipPath id="CLIPPATH_17">
	<rect transform="matrix(1 0 0 1 -20.2792 1065.6836)" id="clip0_10_2907" x="-720" y="-2104" rx="0" ry="0" width="1440" height="4208"/>
</clipPath>
<path style="stroke: none; stroke-width: 0; stroke-dasharray: none; stroke-linecap: butt; stroke-dashoffset: 0; stroke-linejoin: miter; stroke-miterlimit: 4; is-custom-font: none; font-file-url: none; fill: rgb(37,50,75); fill-rule: nonzero; opacity: 1;" transform=" translate(-67.2792, -37.3164)" d="M 67.2276 35.0504 C 67.6366 35.0395 68.0053 35.1244 68.3338 35.305 C 68.6625 35.4917 68.923 35.7566 69.1153 36.0997 C 69.3138 36.4426 69.419 36.8398 69.431 37.2915 C 69.4432 37.7493 69.3591 38.1485 69.1788 38.4892 C 69.0046 38.8298 68.7581 39.0929 68.4393 39.2785 C 68.1207 39.4702 67.7569 39.5714 67.348 39.5823 C 66.939 39.5932 66.5673 39.5114 66.2329 39.3371 C 65.9047 39.1686 65.6415 38.9191 65.4434 38.5884 C 65.2453 38.2578 65.14 37.8574 65.1275 37.3875 C 65.1158 36.948 65.1908 36.552 65.3525 36.1996 C 65.5143 35.8533 65.7544 35.5781 66.0727 35.3742 C 66.391 35.1703 66.776 35.0624 67.2276 35.0504 Z M 67.2527 36.3415 C 67.0452 36.347 66.8571 36.3948 66.6885 36.4848 C 66.526 36.5746 66.3978 36.6941 66.3041 36.8431 C 66.2103 36.9922 66.1659 37.1583 66.1707 37.3414 C 66.1761 37.5428 66.2295 37.7155 66.3311 37.8594 C 66.4326 38.0033 66.5668 38.1127 66.7337 38.1877 C 66.9068 38.2625 67.097 38.2971 67.3045 38.2916 C 67.5182 38.286 67.7063 38.2413 67.869 38.1575 C 68.0317 38.0738 68.1599 37.9574 68.2537 37.8083 C 68.3475 37.6593 68.3917 37.484 68.3863 37.2826 C 68.3815 37.0995 68.3283 36.936 68.2267 36.7921 C 68.1252 36.6482 67.9909 36.5357 67.8238 36.4546 C 67.6567 36.3736 67.4664 36.3359 67.2527 36.3415 Z" stroke-linecap="round"/>
</g>
		<g transform="matrix(11.0898 0 0 11.0898 72.2642 -11730.3753)" id="r_2" clip-path="url(#CLIPPATH_18)">
<clipPath id="CLIPPATH_18">
	<rect transform="matrix(1 0 0 1 -19.5623 1057.7672)" id="clip0_10_2907" x="-720" y="-2104" rx="0" ry="0" width="1440" height="4208"/>
</clipPath>
<path style="stroke: none; stroke-width: 0; stroke-dasharray: none; stroke-linecap: butt; stroke-dashoffset: 0; stroke-linejoin: miter; stroke-miterlimit: 4; is-custom-font: none; font-file-url: none; fill: rgb(37,50,75); fill-rule: nonzero; opacity: 1;" transform=" translate(-66.5623, -45.2328)" d="M 68.3733 45.4765 L 67.279 45.32 L 67.4455 45.3342 C 67.6476 45.5055 67.8035 45.7091 67.9134 45.9451 C 68.0293 46.1826 68.1074 46.4074 68.1478 46.6193 C 68.1867 46.8372 68.1933 46.9964 68.1677 47.097 L 66.9412 46.7178 C 67.0506 46.437 67.0667 46.1764 66.9894 45.9361 C 66.9121 45.6959 66.7813 45.4923 66.597 45.3256 C 66.4127 45.1588 66.2082 45.0467 65.9834 44.9894 L 64.4659 44.6021 L 64.7807 43.3686 L 68.6587 44.3583 L 68.3733 45.4765 Z" stroke-linecap="round"/>
</g>
		<g transform="matrix(11.0898 0 0 11.0898 38.9826 -11653.581)" id="e_2" clip-path="url(#CLIPPATH_19)">
<clipPath id="CLIPPATH_19">
	<rect transform="matrix(1 0 0 1 -16.5612 1050.8425)" id="clip0_10_2907" x="-720" y="-2104" rx="0" ry="0" width="1440" height="4208"/>
</clipPath>
<path style="stroke: none; stroke-width: 0; stroke-dasharray: none; stroke-linecap: butt; stroke-dashoffset: 0; stroke-linejoin: miter; stroke-miterlimit: 4; is-custom-font: none; font-file-url: none; fill: rgb(37,50,75); fill-rule: nonzero; opacity: 1;" transform=" translate(-63.5612, -52.1575)" d="M 61.7054 51.1622 C 61.9467 50.7375 62.2315 50.4218 62.5597 50.215 C 62.8849 50.0136 63.2319 49.9158 63.6007 49.9218 C 63.9695 49.9277 64.3371 50.0348 64.7034 50.2429 C 65.0537 50.442 65.3183 50.7118 65.4971 51.0522 C 65.6758 51.3925 65.7615 51.7608 65.7541 52.1569 C 65.752 52.556 65.6454 52.9413 65.4342 53.3129 C 65.1506 53.8119 64.7724 54.1377 64.2994 54.2903 C 63.8287 54.4512 63.2928 54.424 62.6918 54.2089 L 63.3704 51.0129 L 64.1158 51.1099 L 63.6635 53.4443 L 63.6912 53.1546 C 63.8534 53.1905 64.0166 53.1815 64.1808 53.1273 C 64.3473 53.0815 64.4924 52.9497 64.6161 52.7321 C 64.7096 52.5675 64.7527 52.3989 64.7455 52.2263 C 64.7406 52.0619 64.6861 51.9045 64.582 51.7541 C 64.4802 51.6119 64.3337 51.4866 64.1426 51.378 C 63.9249 51.2543 63.7192 51.19 63.5253 51.1852 C 63.3367 51.1833 63.166 51.2303 63.0133 51.3261 C 62.8605 51.4219 62.7359 51.5547 62.6394 51.7246 C 62.57 51.8467 62.5248 51.9755 62.5039 52.1111 C 62.48 52.252 62.4709 52.3978 62.4766 52.5485 L 61.3679 52.5716 C 61.3673 52.3255 61.397 52.0755 61.457 51.8216 C 61.514 51.5731 61.5968 51.3533 61.7054 51.1622 Z" stroke-linecap="round"/>
</g>
		<g transform="matrix(11.0898 0 0 11.0898 -216.7647 -11782.8632)" id="Ellipse 1" clip-path="url(#CLIPPATH_20)">
<clipPath id="CLIPPATH_20">
	<rect transform="matrix(1 0 0 1 7 1063)" id="clip0_10_2907" x="-720" y="-2104" rx="0" ry="0" width="1440" height="4208"/>
</clipPath>
<circle style="stroke: rgb(1,8,134); stroke-opacity: 0.3; stroke-width: 1; stroke-dasharray: none; stroke-linecap: butt; stroke-dashoffset: 0; stroke-linejoin: miter; stroke-miterlimit: 4; is-custom-font: none; font-file-url: none; fill: none; fill-rule: nonzero; opacity: 1;" cx="0" cy="0" r="39.5"/>
</g>
</g>
</g>
</svg>