<svg width="21" height="20" viewBox="0 0 21 20" fill="none" xmlns="http://www.w3.org/2000/svg">
<g id="u:bath" clip-path="url(#clip0_765_933)">
<path id="Vector" d="M18.3402 9.99999H4.17351V5.34179C4.17059 5.04169 4.24979 4.74649 4.40255 4.48816C4.55531 4.22982 4.7758 4.01818 5.04018 3.87613C5.33252 3.7177 5.66566 3.65059 5.99655 3.68347C5.82813 4.19351 5.8042 4.74023 5.92742 5.26304C6.05064 5.78585 6.31618 6.26434 6.69464 6.6455L7.57846 7.52929C7.65582 7.60669 7.74767 7.66809 7.84877 7.70998C7.94986 7.75187 8.05822 7.77343 8.16765 7.77343C8.27708 7.77343 8.38544 7.75187 8.48654 7.70998C8.58763 7.66809 8.67948 7.60669 8.75685 7.52929L11.7028 4.58333C11.7802 4.50597 11.8416 4.41411 11.8835 4.31302C11.9254 4.21192 11.9469 4.10356 11.9469 3.99413C11.9469 3.8847 11.9254 3.77634 11.8835 3.67525C11.8416 3.57415 11.7802 3.4823 11.7028 3.40494L10.819 2.52115C10.3271 2.03146 9.67647 1.7336 8.98436 1.68127C8.29224 1.62893 7.6042 1.82556 7.04425 2.23571C6.53939 2.03853 5.994 1.96768 5.45552 2.02932C4.91704 2.09096 4.40177 2.28323 3.95453 2.58939C3.50728 2.89555 3.14161 3.30634 2.8893 3.78603C2.637 4.26572 2.50571 4.79979 2.50685 5.34179V9.99999H1.67351C1.4525 9.99999 1.24054 10.0878 1.08426 10.2441C0.927977 10.4003 0.840179 10.6123 0.840179 10.8333C0.840179 11.0543 0.927977 11.2663 1.08426 11.4226C1.24054 11.5789 1.4525 11.6667 1.67351 11.6667H2.50685V14.1667C2.50843 14.682 2.66949 15.1842 2.96791 15.6043C3.26632 16.0244 3.68746 16.3419 4.17351 16.5131V17.5C4.17351 17.721 4.26131 17.933 4.41759 18.0892C4.57387 18.2455 4.78583 18.3333 5.00685 18.3333C5.22786 18.3333 5.43982 18.2455 5.5961 18.0892C5.75238 17.933 5.84018 17.721 5.84018 17.5V16.6667H14.1735V17.5C14.1735 17.721 14.2613 17.933 14.4176 18.0892C14.5739 18.2455 14.7858 18.3333 15.0068 18.3333C15.2279 18.3333 15.4398 18.2455 15.5961 18.0892C15.7524 17.933 15.8402 17.721 15.8402 17.5V16.5131C16.3262 16.3419 16.7474 16.0244 17.0458 15.6043C17.3442 15.1842 17.5053 14.682 17.5068 14.1667V11.6667H18.3402C18.5612 11.6667 18.7732 11.5789 18.9294 11.4226C19.0857 11.2663 19.1735 11.0543 19.1735 10.8333C19.1735 10.6123 19.0857 10.4003 18.9294 10.2441C18.7732 10.0878 18.5612 9.99999 18.3402 9.99999ZM7.87305 3.69953C8.10767 3.46554 8.42549 3.33414 8.75685 3.33414C9.0882 3.33414 9.40602 3.46554 9.64064 3.69953L9.93523 3.99413L8.16768 5.76171L7.87308 5.46712C7.63896 5.23257 7.50747 4.91472 7.50747 4.58333C7.50746 4.25194 7.63894 3.93408 7.87305 3.69953ZM15.8402 14.1667C15.84 14.3876 15.7522 14.5995 15.5959 14.7558C15.4397 14.912 15.2278 14.9998 15.0068 15H5.00685C4.78588 14.9998 4.574 14.912 4.41775 14.7558C4.26151 14.5995 4.17366 14.3876 4.17351 14.1667V11.6667H15.8402V14.1667Z" fill="#515B6F"/>
</g>
<defs>
<clipPath id="clip0_765_933">
<rect width="20" height="20" fill="white" transform="translate(0.00683594)"/>
</clipPath>
</defs>
</svg>
