<svg width="21" height="20" viewBox="0 0 21 20" fill="none" xmlns="http://www.w3.org/2000/svg">
<g id="u:bed-double" clip-path="url(#clip0_765_927)">
<path id="Vector" d="M16.6735 2.91663H3.34015C2.67711 2.91663 2.04122 3.18002 1.57238 3.64886C1.10354 4.1177 0.840149 4.75358 0.840149 5.41663V16.25C0.840149 16.471 0.927946 16.6829 1.08423 16.8392C1.24051 16.9955 1.45247 17.0833 1.67348 17.0833H5.00681C5.14407 17.0826 5.27903 17.048 5.39969 16.9826C5.52036 16.9171 5.62299 16.8229 5.69848 16.7083L7.12348 14.5833H12.8901L14.3151 16.7083C14.3906 16.8229 14.4933 16.9171 14.6139 16.9826C14.7346 17.048 14.8696 17.0826 15.0068 17.0833H18.3401C18.5612 17.0833 18.7731 16.9955 18.9294 16.8392C19.0857 16.6829 19.1735 16.471 19.1735 16.25V5.41663C19.1735 4.75358 18.9101 4.1177 18.4412 3.64886C17.9724 3.18002 17.3365 2.91663 16.6735 2.91663ZM17.5068 15.4166H15.4568L14.0318 13.3333C13.9613 13.2109 13.8608 13.1085 13.7398 13.0356C13.6188 12.9627 13.4813 12.9218 13.3401 12.9166H6.67348C6.53623 12.9173 6.40127 12.9519 6.28061 13.0174C6.15994 13.0828 6.05731 13.177 5.98182 13.2916L4.55682 15.4166H2.50682V11.25H17.5068V15.4166ZM5.84015 9.58329V8.74996C5.84015 8.52895 5.92795 8.31698 6.08423 8.1607C6.24051 8.00442 6.45247 7.91663 6.67348 7.91663H8.34015C8.56116 7.91663 8.77312 8.00442 8.9294 8.1607C9.08568 8.31698 9.17348 8.52895 9.17348 8.74996V9.58329H5.84015ZM10.8401 9.58329V8.74996C10.8401 8.52895 10.9279 8.31698 11.0842 8.1607C11.2405 8.00442 11.4525 7.91663 11.6735 7.91663H13.3401C13.5612 7.91663 13.7731 8.00442 13.9294 8.1607C14.0857 8.31698 14.1735 8.52895 14.1735 8.74996V9.58329H10.8401ZM17.5068 9.58329H15.8401V8.74996C15.8401 8.08692 15.5768 7.45103 15.1079 6.98219C14.6391 6.51335 14.0032 6.24996 13.3401 6.24996H11.6735C11.0568 6.25363 10.4632 6.48514 10.0068 6.89996C9.55045 6.48514 8.95686 6.25363 8.34015 6.24996H6.67348C6.01044 6.24996 5.37456 6.51335 4.90571 6.98219C4.43687 7.45103 4.17348 8.08692 4.17348 8.74996V9.58329H2.50682V5.41663C2.50682 5.19561 2.59461 4.98365 2.75089 4.82737C2.90717 4.67109 3.11913 4.58329 3.34015 4.58329H16.6735C16.8945 4.58329 17.1065 4.67109 17.2627 4.82737C17.419 4.98365 17.5068 5.19561 17.5068 5.41663V9.58329Z" fill="#515B6F"/>
</g>
<defs>
<clipPath id="clip0_765_927">
<rect width="20" height="20" fill="white" transform="translate(0.00683594)"/>
</clipPath>
</defs>
</svg>
