<svg width="25" height="25" viewBox="0 0 25 25" fill="none" xmlns="http://www.w3.org/2000/svg">
<g id="u:location-pin-alt">
<path id="Vector" d="M12.0068 11.3C12.4024 11.3 12.7891 11.1827 13.118 10.9629C13.4469 10.7431 13.7032 10.4308 13.8546 10.0653C14.006 9.69988 14.0456 9.29775 13.9684 8.90979C13.8912 8.52182 13.7008 8.16546 13.421 7.88575C13.1413 7.60605 12.785 7.41557 12.397 7.3384C12.0091 7.26122 11.6069 7.30083 11.2415 7.45221C10.876 7.60358 10.5637 7.85993 10.3439 8.18883C10.1241 8.51772 10.0068 8.9044 10.0068 9.29997C10.0068 9.8304 10.2175 10.3391 10.5926 10.7142C10.9677 11.0893 11.4764 11.3 12.0068 11.3ZM11.2968 18.21C11.3898 18.3037 11.5004 18.3781 11.6223 18.4289C11.7441 18.4796 11.8748 18.5058 12.0068 18.5058C12.1388 18.5058 12.2696 18.4796 12.3914 18.4289C12.5133 18.3781 12.6239 18.3037 12.7168 18.21L16.8068 14.11C17.7568 13.1605 18.4038 11.9507 18.6661 10.6334C18.9284 9.3162 18.7941 7.95077 18.2803 6.70986C17.7665 5.46894 16.8962 4.40828 15.7795 3.66202C14.6628 2.91577 13.3499 2.51746 12.0068 2.51746C10.6637 2.51746 9.35083 2.91577 8.23415 3.66202C7.11746 4.40828 6.24717 5.46894 5.73335 6.70986C5.21954 7.95077 5.08528 9.3162 5.34756 10.6334C5.60985 11.9507 6.25688 13.1605 7.20684 14.11L11.2968 18.21ZM7.23684 8.83997C7.30516 8.12698 7.53185 7.43826 7.90036 6.82408C8.26887 6.2099 8.76989 5.68577 9.36684 5.28997C10.151 4.77506 11.0687 4.50072 12.0068 4.50072C12.945 4.50072 13.8626 4.77506 14.6468 5.28997C15.2398 5.68442 15.738 6.20537 16.1056 6.81535C16.4731 7.42533 16.701 8.1092 16.7727 8.81775C16.8444 9.52631 16.7582 10.242 16.5203 10.9132C16.2824 11.5845 15.8987 12.1947 15.3968 12.7L12.0068 16.09L8.61684 12.7C8.11436 12.1996 7.72976 11.5935 7.49104 10.9258C7.25232 10.258 7.16548 9.54549 7.23684 8.83997ZM19.0068 20.5H5.00684C4.74162 20.5 4.48727 20.6053 4.29973 20.7929C4.11219 20.9804 4.00684 21.2347 4.00684 21.5C4.00684 21.7652 4.11219 22.0195 4.29973 22.2071C4.48727 22.3946 4.74162 22.5 5.00684 22.5H19.0068C19.2721 22.5 19.5264 22.3946 19.7139 22.2071C19.9015 22.0195 20.0068 21.7652 20.0068 21.5C20.0068 21.2347 19.9015 20.9804 19.7139 20.7929C19.5264 20.6053 19.2721 20.5 19.0068 20.5Z" fill="#515B6F"/>
</g>
</svg>
