<svg width="48" height="48" viewBox="0 0 48 48" fill="none" xmlns="http://www.w3.org/2000/svg">
<g id="u:location-pin-alt">
<path id="Vector" d="M24 21.6C24.7911 21.6 25.5645 21.3654 26.2223 20.9259C26.8801 20.4863 27.3928 19.8616 27.6955 19.1307C27.9983 18.3998 28.0775 17.5956 27.9231 16.8196C27.7688 16.0437 27.3878 15.331 26.8284 14.7716C26.269 14.2122 25.5563 13.8312 24.7804 13.6769C24.0044 13.5225 23.2002 13.6017 22.4693 13.9045C21.7384 14.2072 21.1136 14.7199 20.6741 15.3777C20.2346 16.0355 20 16.8089 20 17.6C20 18.6609 20.4214 19.6783 21.1716 20.4284C21.9217 21.1786 22.9391 21.6 24 21.6ZM22.58 35.42C22.7659 35.6074 22.9871 35.7562 23.2308 35.8578C23.4746 35.9593 23.736 36.0116 24 36.0116C24.264 36.0116 24.5254 35.9593 24.7692 35.8578C25.0129 35.7562 25.2341 35.6074 25.42 35.42L33.6 27.22C35.4999 25.3211 36.794 22.9014 37.3185 20.2669C37.8431 17.6325 37.5746 14.9016 36.547 12.4198C35.5193 9.93794 33.7788 7.81661 31.5454 6.32411C29.312 4.83161 26.6862 4.03497 24 4.03497C21.3138 4.03497 18.688 4.83161 16.4546 6.32411C14.2212 7.81661 12.4807 9.93794 11.453 12.4198C10.4254 14.9016 10.1569 17.6325 10.6815 20.2669C11.206 22.9014 12.5001 25.3211 14.4 27.22L22.58 35.42ZM14.46 16.68C14.5967 15.254 15.05 13.8766 15.787 12.6482C16.5241 11.4199 17.5261 10.3716 18.72 9.57999C20.2884 8.55019 22.1237 8.00151 24 8.00151C25.8763 8.00151 27.7116 8.55019 29.28 9.57999C30.4659 10.3689 31.4623 11.4108 32.1975 12.6308C32.9326 13.8507 33.3883 15.2185 33.5317 16.6356C33.6752 18.0527 33.5028 19.484 33.027 20.8265C32.5512 22.169 31.7838 23.3895 30.78 24.4L24 31.18L17.22 24.4C16.215 23.3993 15.4459 22.1871 14.9684 20.8516C14.491 19.5161 14.3173 18.091 14.46 16.68ZM38 40H10C9.46957 40 8.96086 40.2107 8.58579 40.5858C8.21071 40.9608 8 41.4696 8 42C8 42.5304 8.21071 43.0391 8.58579 43.4142C8.96086 43.7893 9.46957 44 10 44H38C38.5304 44 39.0391 43.7893 39.4142 43.4142C39.7893 43.0391 40 42.5304 40 42C40 41.4696 39.7893 40.9608 39.4142 40.5858C39.0391 40.2107 38.5304 40 38 40Z" fill="#010886"/>
</g>
</svg>
