<svg width="49" height="48" viewBox="0 0 49 48" fill="none" xmlns="http://www.w3.org/2000/svg">
<g id="u:money-stack">
<path id="Vector" d="M44.407 34H4.40704C3.87661 34 3.3679 34.2107 2.99283 34.5858C2.61776 34.9609 2.40704 35.4696 2.40704 36C2.40704 36.5304 2.61776 37.0391 2.99283 37.4142C3.3679 37.7893 3.87661 38 4.40704 38H44.407C44.9375 38 45.4462 37.7893 45.8213 37.4142C46.1963 37.0391 46.407 36.5304 46.407 36C46.407 35.4696 46.1963 34.9609 45.8213 34.5858C45.4462 34.2107 44.9375 34 44.407 34ZM44.407 42H4.40704C3.87661 42 3.3679 42.2107 2.99283 42.5858C2.61776 42.9609 2.40704 43.4696 2.40704 44C2.40704 44.5304 2.61776 45.0391 2.99283 45.4142C3.3679 45.7893 3.87661 46 4.40704 46H44.407C44.9375 46 45.4462 45.7893 45.8213 45.4142C46.1963 45.0391 46.407 44.5304 46.407 44C46.407 43.4696 46.1963 42.9609 45.8213 42.5858C45.4462 42.2107 44.9375 42 44.407 42ZM12.407 14C12.0115 14 11.6248 14.1173 11.2959 14.3371C10.967 14.5568 10.7107 14.8692 10.5593 15.2346C10.4079 15.6001 10.3683 16.0022 10.4455 16.3902C10.5226 16.7781 10.7131 17.1345 10.9928 17.4142C11.2725 17.6939 11.6289 17.8844 12.0169 17.9616C12.4048 18.0387 12.807 17.9991 13.1724 17.8478C13.5379 17.6964 13.8502 17.44 14.07 17.1111C14.2897 16.7822 14.407 16.3956 14.407 16C14.407 15.4696 14.1963 14.9609 13.8213 14.5858C13.4462 14.2107 12.9375 14 12.407 14ZM40.407 2H8.40704C6.81574 2 5.28962 2.63214 4.1644 3.75736C3.03918 4.88258 2.40704 6.4087 2.40704 8V24C2.40704 25.5913 3.03918 27.1174 4.1644 28.2426C5.28962 29.3679 6.81574 30 8.40704 30H40.407C41.9983 30 43.5245 29.3679 44.6497 28.2426C45.7749 27.1174 46.407 25.5913 46.407 24V8C46.407 6.4087 45.7749 4.88258 44.6497 3.75736C43.5245 2.63214 41.9983 2 40.407 2ZM42.407 24C42.407 24.5304 42.1963 25.0391 41.8213 25.4142C41.4462 25.7893 40.9375 26 40.407 26H8.40704C7.87661 26 7.3679 25.7893 6.99283 25.4142C6.61776 25.0391 6.40704 24.5304 6.40704 24V8C6.40704 7.46957 6.61776 6.96086 6.99283 6.58579C7.3679 6.21071 7.87661 6 8.40704 6H40.407C40.9375 6 41.4462 6.21071 41.8213 6.58579C42.1963 6.96086 42.407 7.46957 42.407 8V24ZM24.407 10C23.2204 10 22.0603 10.3519 21.0736 11.0112C20.0869 11.6705 19.3179 12.6075 18.8638 13.7039C18.4096 14.8003 18.2908 16.0067 18.5223 17.1705C18.7538 18.3344 19.3253 19.4035 20.1644 20.2426C21.0035 21.0818 22.0726 21.6532 23.2365 21.8847C24.4004 22.1162 25.6068 21.9974 26.7031 21.5433C27.7995 21.0892 28.7366 20.3201 29.3959 19.3334C30.0551 18.3467 30.407 17.1867 30.407 16C30.407 14.4087 29.7749 12.8826 28.6497 11.7574C27.5245 10.6321 25.9983 10 24.407 10ZM24.407 18C24.0115 18 23.6248 17.8827 23.2959 17.6629C22.967 17.4432 22.7107 17.1308 22.5593 16.7654C22.4079 16.3999 22.3683 15.9978 22.4455 15.6098C22.5226 15.2219 22.7131 14.8655 22.9928 14.5858C23.2725 14.3061 23.6289 14.1156 24.0169 14.0384C24.4048 13.9613 24.807 14.0009 25.1724 14.1522C25.5379 14.3036 25.8502 14.56 26.07 14.8889C26.2897 15.2178 26.407 15.6044 26.407 16C26.407 16.5304 26.1963 17.0391 25.8213 17.4142C25.4462 17.7893 24.9375 18 24.407 18ZM36.407 14C36.0115 14 35.6248 14.1173 35.2959 14.3371C34.967 14.5568 34.7107 14.8692 34.5593 15.2346C34.4079 15.6001 34.3683 16.0022 34.4455 16.3902C34.5226 16.7781 34.7131 17.1345 34.9928 17.4142C35.2725 17.6939 35.6289 17.8844 36.0169 17.9616C36.4048 18.0387 36.807 17.9991 37.1724 17.8478C37.5379 17.6964 37.8502 17.44 38.07 17.1111C38.2897 16.7822 38.407 16.3956 38.407 16C38.407 15.4696 38.1963 14.9609 37.8213 14.5858C37.4462 14.2107 36.9375 14 36.407 14Z" fill="#010886"/>
</g>
</svg>
